<svg version="1.1" viewBox="0.0 0.0 115.0 30.0" fill="none" stroke="none" stroke-linecap="square" stroke-miterlimit="10" xmlns:xlink="http://www.w3.org/1999/xlink" xmlns="http://www.w3.org/2000/svg"><clipPath id="p.0"><path d="m0 0l115.0 0l0 30.0l-115.0 0l0 -30.0z" clip-rule="nonzero"/></clipPath><g clip-path="url(#p.0)"><path fill="#000000" fill-opacity="0.0" d="m0 0l115.0 0l0 30.0l-115.0 0z" fill-rule="evenodd"/><path fill="#000000" fill-opacity="0.0" d="m0.005249344 -8.433071l114.99213 0l0 46.866142l-114.99213 0z" fill-rule="evenodd"/><path fill="#ffffff" d="m34.183067 22.326927l0 -12.875l-5.078125 0l0 -2.9843745l13.8125 0l0 2.9843745l-5.078125 0l0 12.875l-3.65625 0zm18.181107 0.265625q-1.875 0 -3.46875 -0.609375q-1.59375 -0.609375 -2.765625 -1.71875q-1.171875 -1.109375 -1.8125 -2.59375q-0.640625 -1.5 -0.640625 -3.265625q0 -1.78125 0.640625 -3.265625q0.640625 -1.5 1.8125 -2.609375q1.1875 -1.1093745 2.765625 -1.7187495q1.59375 -0.609375 3.453125 -0.609375q1.875 0 3.453125 0.609375q1.578125 0.609375 2.734375 1.7187495q1.171875 1.109375 1.828125 2.59375q0.65625 1.484375 0.65625 3.28125q0 1.765625 -0.65625 3.265625q-0.65625 1.5 -1.828125 2.609375q-1.15625 1.09375 -2.734375 1.703125q-1.578125 0.609375 -3.4375 0.609375zm-0.015625 -3.125q1.0625 0 1.953125 -0.359375q0.90625 -0.359375 1.578125 -1.03125q0.6875 -0.6875 1.046875 -1.609375q0.375 -0.9375 0.375 -2.0625q0 -1.140625 -0.375 -2.0625q-0.359375 -0.9375 -1.03125 -1.609375q-0.671875 -0.6875 -1.578125 -1.046875q-0.90625 -0.359375 -1.96875 -0.359375q-1.0625 0 -1.96875 0.359375q-0.890625 0.359375 -1.578125 1.046875q-0.671875 0.671875 -1.046875 1.609375q-0.375 0.921875 -0.375 2.0625q0 1.109375 0.375 2.046875q0.375 0.9375 1.046875 1.625q0.671875 0.671875 1.578125 1.03125q0.90625 0.359375 1.96875 0.359375zm11.434341 2.859375l0 -15.859375l6.875 0q2.125 0 3.65625 0.6875q1.546875 0.6875 2.375 1.9843745q0.84375 1.296875 0.84375 3.078125q0 1.765625 -0.84375 3.046875q-0.828125 1.28125 -2.375 1.96875q-1.53125 0.671875 -3.65625 0.671875l-4.828125 0l1.625 -1.609375l0 6.03125l-3.671875 0zm10.09375 0l-3.96875 -5.75l3.921875 0l4.0 5.75l-3.953125 0zm-6.421875 -5.625l-1.625 -1.71875l4.625 0q1.6875 0 2.53125 -0.734375q0.84375 -0.734375 0.84375 -2.03125q0 -1.3125 -0.84375 -2.03125q-0.84375 -0.734375 -2.53125 -0.734375l-4.625 0l1.625 -1.7343745l0 8.984375zm12.980438 5.625l0 -15.859375l3.671875 0l0 15.859375l-3.671875 0z" fill-rule="nonzero"/></g></svg>